<?xml version="1.0" encoding="UTF-8" standalone="no"?>
<!DOCTYPE svg PUBLIC "-//W3C//DTD SVG 1.1//EN"
 "http://www.w3.org/Graphics/SVG/1.1/DTD/svg11.dtd">
<!-- Generated by graphviz version 10.0.1 (0)
 -->
<!-- Title: G Pages: 1 -->
<svg width="663px" height="685px"
 viewBox="0.00 0.00 663.25 685.25" xmlns="http://www.w3.org/2000/svg" xmlns:xlink="http://www.w3.org/1999/xlink">
<g id="graph0" class="graph" transform="scale(1 1) rotate(0) translate(4 681.25)">
<title>G</title>
<text text-anchor="middle" x="327.62" y="-7.95" font-family="Times,serif" font-size="14.00">Interrupt Paths in an AIA System</text>
<g id="clust1" class="cluster">
<title>main</title>
<polygon fill="none" stroke="none" points="8,-33.25 8,-567.25 647.25,-567.25 647.25,-33.25 8,-33.25"/>
</g>
<g id="clust2" class="cluster">
<title>aplic</title>
<polygon fill="#f8cecc" stroke="#b85450" points="186.38,-261.25 186.38,-536.25 291.88,-536.25 291.88,-261.25 186.38,-261.25"/>
<text text-anchor="middle" x="239.12" y="-518.95" font-family="Times,serif" font-size="14.00">APLIC</text>
</g>
<g id="clust3" class="cluster">
<title>imsic_hart_0</title>
<polygon fill="none" stroke="none" points="407,-41.25 407,-296.25 637,-296.25 637,-41.25 407,-41.25"/>
</g>
<g id="clust4" class="cluster">
<title>imsic_0</title>
<polygon fill="#f8cecc" stroke="#b85450" points="415,-49.25 415,-288.25 536.25,-288.25 536.25,-49.25 415,-49.25"/>
<text text-anchor="middle" x="475.62" y="-270.95" font-family="Times,serif" font-size="14.00">IMSIC 0</text>
</g>
<g id="clust5" class="cluster">
<title>imsic_hart__</title>
<polygon fill="none" stroke="none" points="407,-304.25 407,-559.25 639.25,-559.25 639.25,-304.25 407,-304.25"/>
</g>
<g id="clust6" class="cluster">
<title>imsic__</title>
<polygon fill="#f8cecc" stroke="#b85450" points="415,-312.25 415,-551.25 536.25,-551.25 536.25,-312.25 415,-312.25"/>
<text text-anchor="middle" x="475.62" y="-533.95" font-family="Times,serif" font-size="14.00">IMSIC ...</text>
</g>
<g id="clust7" class="cluster">
<title>legend</title>
<polygon fill="none" stroke="gray" points="41.5,-575.25 41.5,-669.25 249.38,-669.25 249.38,-575.25 41.5,-575.25"/>
<text text-anchor="middle" x="145.44" y="-651.95" font-family="Times,serif" font-size="14.00">Legend</text>
</g>
<!-- msi_device_0 -->
<g id="node1" class="node">
<title>msi_device_0</title>
<polygon fill="none" stroke="black" points="294.75,-143.25 183.5,-143.25 183.5,-107.25 294.75,-107.25 294.75,-143.25"/>
<text text-anchor="middle" x="239.12" y="-120.58" font-family="Times,serif" font-size="14.00">MSI Device 0</text>
</g>
<!-- bus_network -->
<g id="node9" class="node">
<title>bus_network</title>
<polygon fill="none" stroke="black" points="387,-552.25 333,-552.25 333,-48.25 387,-48.25 387,-552.25"/>
<text text-anchor="middle" x="360" y="-295.57" font-family="Times,serif" font-size="14.00">Bus</text>
</g>
<!-- msi_device_0&#45;&gt;bus_network -->
<g id="edge1" class="edge">
<title>msi_device_0&#45;&gt;bus_network</title>
<path fill="none" stroke="black" d="M294.96,-125.25C294.96,-123.25 321.17,-123.25 321.17,-125.25"/>
<path fill="none" stroke="none" d="M294.96,-125.25C294.96,-125.25 321.17,-125.25 321.17,-125.25"/>
<path fill="none" stroke="black" d="M294.96,-125.25C294.96,-127.25 321.17,-127.25 321.17,-125.25"/>
<polygon fill="black" stroke="black" points="321.17,-128.75 331.17,-125.25 321.17,-121.75 321.17,-128.75"/>
</g>
<!-- msi_device_1 -->
<g id="node2" class="node">
<title>msi_device_1</title>
<polygon fill="none" stroke="black" points="294.75,-197.25 183.5,-197.25 183.5,-161.25 294.75,-161.25 294.75,-197.25"/>
<text text-anchor="middle" x="239.12" y="-174.57" font-family="Times,serif" font-size="14.00">MSI Device 1</text>
</g>
<!-- msi_device_1&#45;&gt;bus_network -->
<g id="edge2" class="edge">
<title>msi_device_1&#45;&gt;bus_network</title>
<path fill="none" stroke="black" d="M294.96,-179.25C294.96,-177.25 321.17,-177.25 321.17,-179.25"/>
<path fill="none" stroke="none" d="M294.96,-179.25C294.96,-179.25 321.17,-179.25 321.17,-179.25"/>
<path fill="none" stroke="black" d="M294.96,-179.25C294.96,-181.25 321.17,-181.25 321.17,-179.25"/>
<polygon fill="black" stroke="black" points="321.17,-182.75 331.17,-179.25 321.17,-175.75 321.17,-182.75"/>
</g>
<!-- msi_device__ -->
<g id="node3" class="node">
<title>msi_device__</title>
<polygon fill="none" stroke="black" points="297,-251.25 181.25,-251.25 181.25,-215.25 297,-215.25 297,-251.25"/>
<text text-anchor="middle" x="239.12" y="-228.57" font-family="Times,serif" font-size="14.00">MSI Device ...</text>
</g>
<!-- msi_device__&#45;&gt;bus_network -->
<g id="edge3" class="edge">
<title>msi_device__&#45;&gt;bus_network</title>
<path fill="none" stroke="black" d="M297.44,-233.25C297.44,-231.25 321.18,-231.25 321.18,-233.25"/>
<path fill="none" stroke="none" d="M297.44,-233.25C297.44,-233.25 321.18,-233.25 321.18,-233.25"/>
<path fill="none" stroke="black" d="M297.44,-233.25C297.44,-235.25 321.18,-235.25 321.18,-233.25"/>
<polygon fill="black" stroke="black" points="321.18,-236.75 331.18,-233.25 321.18,-229.75 321.18,-236.75"/>
</g>
<!-- m_domain -->
<g id="node4" class="node">
<title>m_domain</title>
<polygon fill="none" stroke="black" points="283.88,-377.25 194.38,-377.25 194.38,-269.25 283.88,-269.25 283.88,-377.25"/>
<text text-anchor="middle" x="239.12" y="-318.57" font-family="Times,serif" font-size="14.00">M Domain</text>
</g>
<!-- s_domain -->
<g id="node5" class="node">
<title>s_domain</title>
<polygon fill="none" stroke="black" points="281.62,-503.25 196.62,-503.25 196.62,-395.25 281.62,-395.25 281.62,-503.25"/>
<text text-anchor="middle" x="239.12" y="-444.57" font-family="Times,serif" font-size="14.00">S Domain</text>
</g>
<!-- m_domain&#45;&gt;s_domain -->
<g id="edge7" class="edge">
<title>m_domain&#45;&gt;s_domain</title>
<path fill="none" stroke="black" d="M225.25,-377.42C225.25,-377.42 225.25,-383.62 225.25,-383.62"/>
<polygon fill="black" stroke="black" points="221.75,-383.62 225.25,-393.62 228.75,-383.62 221.75,-383.62"/>
</g>
<!-- m_domain&#45;&gt;s_domain -->
<g id="edge8" class="edge">
<title>m_domain&#45;&gt;s_domain</title>
<path fill="none" stroke="black" d="M254.25,-377.42C254.25,-377.42 254.25,-383.62 254.25,-383.62"/>
<polygon fill="black" stroke="black" points="250.75,-383.62 254.25,-393.62 257.75,-383.62 250.75,-383.62"/>
</g>
<!-- m_domain&#45;&gt;bus_network -->
<g id="edge4" class="edge">
<title>m_domain&#45;&gt;bus_network</title>
<path fill="none" stroke="black" d="M284.13,-323.25C284.13,-321.25 321,-321.25 321,-323.25"/>
<path fill="none" stroke="none" d="M284.13,-323.25C284.13,-323.25 321,-323.25 321,-323.25"/>
<path fill="none" stroke="black" d="M284.13,-323.25C284.13,-325.25 321,-325.25 321,-323.25"/>
<polygon fill="black" stroke="black" points="321,-326.75 331,-323.25 321,-319.75 321,-326.75"/>
</g>
<!-- s_domain&#45;&gt;bus_network -->
<g id="edge5" class="edge">
<title>s_domain&#45;&gt;bus_network</title>
<path fill="none" stroke="black" d="M282.08,-431.25C282.08,-429.25 321.12,-429.25 321.12,-431.25"/>
<path fill="none" stroke="none" d="M282.08,-431.25C282.08,-431.25 321.12,-431.25 321.12,-431.25"/>
<path fill="none" stroke="black" d="M282.08,-431.25C282.08,-433.25 321.12,-433.25 321.12,-431.25"/>
<polygon fill="black" stroke="black" points="321.12,-434.75 331.12,-431.25 321.12,-427.75 321.12,-434.75"/>
</g>
<!-- s_domain&#45;&gt;bus_network -->
<g id="edge6" class="edge">
<title>s_domain&#45;&gt;bus_network</title>
<path fill="none" stroke="black" d="M282.08,-467.25C282.08,-465.25 321.12,-465.25 321.12,-467.25"/>
<path fill="none" stroke="none" d="M282.08,-467.25C282.08,-467.25 321.12,-467.25 321.12,-467.25"/>
<path fill="none" stroke="black" d="M282.08,-467.25C282.08,-469.25 321.12,-469.25 321.12,-467.25"/>
<polygon fill="black" stroke="black" points="321.12,-470.75 331.12,-467.25 321.12,-463.75 321.12,-470.75"/>
</g>
<!-- wired_device_0 -->
<g id="node6" class="node">
<title>wired_device_0</title>
<polygon fill="none" stroke="black" points="143,-287.25 18.25,-287.25 18.25,-251.25 143,-251.25 143,-287.25"/>
<text text-anchor="middle" x="80.62" y="-264.57" font-family="Times,serif" font-size="14.00">Wired Device 0</text>
</g>
<!-- wired_device_0&#45;&gt;m_domain -->
<g id="edge9" class="edge">
<title>wired_device_0&#45;&gt;m_domain</title>
<path fill="none" stroke="black" d="M143.27,-278.25C143.27,-278.25 182.52,-278.25 182.52,-278.25"/>
<polygon fill="black" stroke="black" points="182.52,-281.75 192.52,-278.25 182.52,-274.75 182.52,-281.75"/>
</g>
<!-- wired_device_1 -->
<g id="node7" class="node">
<title>wired_device_1</title>
<polygon fill="none" stroke="black" points="143,-341.25 18.25,-341.25 18.25,-305.25 143,-305.25 143,-341.25"/>
<text text-anchor="middle" x="80.62" y="-318.57" font-family="Times,serif" font-size="14.00">Wired Device 1</text>
</g>
<!-- wired_device_1&#45;&gt;m_domain -->
<g id="edge10" class="edge">
<title>wired_device_1&#45;&gt;m_domain</title>
<path fill="none" stroke="black" d="M143.27,-323.25C143.27,-323.25 182.52,-323.25 182.52,-323.25"/>
<polygon fill="black" stroke="black" points="182.52,-326.75 192.52,-323.25 182.52,-319.75 182.52,-326.75"/>
</g>
<!-- wired_device__ -->
<g id="node8" class="node">
<title>wired_device__</title>
<polygon fill="none" stroke="black" points="145.25,-395.25 16,-395.25 16,-359.25 145.25,-359.25 145.25,-395.25"/>
<text text-anchor="middle" x="80.62" y="-372.57" font-family="Times,serif" font-size="14.00">Wired Device ...</text>
</g>
<!-- wired_device__&#45;&gt;m_domain -->
<g id="edge11" class="edge">
<title>wired_device__&#45;&gt;m_domain</title>
<path fill="none" stroke="black" d="M145.55,-368.25C145.55,-368.25 182.41,-368.25 182.41,-368.25"/>
<polygon fill="black" stroke="black" points="182.41,-371.75 192.41,-368.25 182.41,-364.75 182.41,-371.75"/>
</g>
<!-- imsic_0_mint_file -->
<g id="node10" class="node">
<title>imsic_0_mint_file</title>
<polygon fill="none" stroke="black" points="516.62,-93.25 434.62,-93.25 434.62,-57.25 516.62,-57.25 516.62,-93.25"/>
<text text-anchor="middle" x="475.62" y="-70.58" font-family="Times,serif" font-size="14.00">M IntFile</text>
</g>
<!-- bus_network&#45;&gt;imsic_0_mint_file -->
<g id="edge13" class="edge">
<title>bus_network&#45;&gt;imsic_0_mint_file</title>
<path fill="none" stroke="black" d="M387.4,-75.25C387.4,-73.25 422.88,-73.25 422.88,-75.25"/>
<path fill="none" stroke="none" d="M387.4,-75.25C387.4,-75.25 422.88,-75.25 422.88,-75.25"/>
<path fill="none" stroke="black" d="M387.4,-75.25C387.4,-77.25 422.88,-77.25 422.88,-75.25"/>
<polygon fill="black" stroke="black" points="422.88,-78.75 432.88,-75.25 422.88,-71.75 422.88,-78.75"/>
</g>
<!-- imsic_0_sint_file -->
<g id="node11" class="node">
<title>imsic_0_sint_file</title>
<polygon fill="none" stroke="black" points="514.38,-147.25 436.88,-147.25 436.88,-111.25 514.38,-111.25 514.38,-147.25"/>
<text text-anchor="middle" x="475.62" y="-124.58" font-family="Times,serif" font-size="14.00">S IntFile</text>
</g>
<!-- bus_network&#45;&gt;imsic_0_sint_file -->
<g id="edge15" class="edge">
<title>bus_network&#45;&gt;imsic_0_sint_file</title>
<path fill="none" stroke="black" d="M387.4,-129.25C387.4,-127.25 425.09,-127.25 425.09,-129.25"/>
<path fill="none" stroke="none" d="M387.4,-129.25C387.4,-129.25 425.09,-129.25 425.09,-129.25"/>
<path fill="none" stroke="black" d="M387.4,-129.25C387.4,-131.25 425.09,-131.25 425.09,-129.25"/>
<polygon fill="black" stroke="black" points="425.09,-132.75 435.09,-129.25 425.09,-125.75 425.09,-132.75"/>
</g>
<!-- imsic_0_vsint_file_0 -->
<g id="node12" class="node">
<title>imsic_0_vsint_file_0</title>
<polygon fill="none" stroke="black" points="526,-201.25 425.25,-201.25 425.25,-165.25 526,-165.25 526,-201.25"/>
<text text-anchor="middle" x="475.62" y="-178.57" font-family="Times,serif" font-size="14.00">VS IntFile 0</text>
</g>
<!-- bus_network&#45;&gt;imsic_0_vsint_file_0 -->
<g id="edge17" class="edge">
<title>bus_network&#45;&gt;imsic_0_vsint_file_0</title>
<path fill="none" stroke="black" d="M387.4,-183.25C387.4,-181.25 413.34,-181.25 413.34,-183.25"/>
<path fill="none" stroke="none" d="M387.4,-183.25C387.4,-183.25 413.34,-183.25 413.34,-183.25"/>
<path fill="none" stroke="black" d="M387.4,-183.25C387.4,-185.25 413.34,-185.25 413.34,-183.25"/>
<polygon fill="black" stroke="black" points="413.34,-186.75 423.34,-183.25 413.34,-179.75 413.34,-186.75"/>
</g>
<!-- imsic_0_vsint_file__ -->
<g id="node13" class="node">
<title>imsic_0_vsint_file__</title>
<polygon fill="none" stroke="black" points="528.25,-255.25 423,-255.25 423,-219.25 528.25,-219.25 528.25,-255.25"/>
<text text-anchor="middle" x="475.62" y="-232.57" font-family="Times,serif" font-size="14.00">VS IntFile ...</text>
</g>
<!-- bus_network&#45;&gt;imsic_0_vsint_file__ -->
<g id="edge19" class="edge">
<title>bus_network&#45;&gt;imsic_0_vsint_file__</title>
<path fill="none" stroke="black" d="M387.4,-237.25C387.4,-235.25 411.04,-235.25 411.04,-237.25"/>
<path fill="none" stroke="none" d="M387.4,-237.25C387.4,-237.25 411.04,-237.25 411.04,-237.25"/>
<path fill="none" stroke="black" d="M387.4,-237.25C387.4,-239.25 411.04,-239.25 411.04,-237.25"/>
<polygon fill="black" stroke="black" points="411.04,-240.75 421.04,-237.25 411.04,-233.75 411.04,-240.75"/>
</g>
<!-- imsic___mint_file -->
<g id="node15" class="node">
<title>imsic___mint_file</title>
<polygon fill="none" stroke="black" points="516.62,-356.25 434.62,-356.25 434.62,-320.25 516.62,-320.25 516.62,-356.25"/>
<text text-anchor="middle" x="475.62" y="-333.57" font-family="Times,serif" font-size="14.00">M IntFile</text>
</g>
<!-- bus_network&#45;&gt;imsic___mint_file -->
<g id="edge21" class="edge">
<title>bus_network&#45;&gt;imsic___mint_file</title>
<path fill="none" stroke="black" d="M387.4,-338.25C387.4,-336.25 422.88,-336.25 422.88,-338.25"/>
<path fill="none" stroke="none" d="M387.4,-338.25C387.4,-338.25 422.88,-338.25 422.88,-338.25"/>
<path fill="none" stroke="black" d="M387.4,-338.25C387.4,-340.25 422.88,-340.25 422.88,-338.25"/>
<polygon fill="black" stroke="black" points="422.88,-341.75 432.88,-338.25 422.88,-334.75 422.88,-341.75"/>
</g>
<!-- imsic___sint_file -->
<g id="node16" class="node">
<title>imsic___sint_file</title>
<polygon fill="none" stroke="black" points="514.38,-410.25 436.88,-410.25 436.88,-374.25 514.38,-374.25 514.38,-410.25"/>
<text text-anchor="middle" x="475.62" y="-387.57" font-family="Times,serif" font-size="14.00">S IntFile</text>
</g>
<!-- bus_network&#45;&gt;imsic___sint_file -->
<g id="edge23" class="edge">
<title>bus_network&#45;&gt;imsic___sint_file</title>
<path fill="none" stroke="black" d="M387.4,-392.25C387.4,-390.25 425.09,-390.25 425.09,-392.25"/>
<path fill="none" stroke="none" d="M387.4,-392.25C387.4,-392.25 425.09,-392.25 425.09,-392.25"/>
<path fill="none" stroke="black" d="M387.4,-392.25C387.4,-394.25 425.09,-394.25 425.09,-392.25"/>
<polygon fill="black" stroke="black" points="425.09,-395.75 435.09,-392.25 425.09,-388.75 425.09,-395.75"/>
</g>
<!-- imsic___vsint_file_0 -->
<g id="node17" class="node">
<title>imsic___vsint_file_0</title>
<polygon fill="none" stroke="black" points="526,-464.25 425.25,-464.25 425.25,-428.25 526,-428.25 526,-464.25"/>
<text text-anchor="middle" x="475.62" y="-441.57" font-family="Times,serif" font-size="14.00">VS IntFile 0</text>
</g>
<!-- bus_network&#45;&gt;imsic___vsint_file_0 -->
<g id="edge25" class="edge">
<title>bus_network&#45;&gt;imsic___vsint_file_0</title>
<path fill="none" stroke="black" d="M387.4,-446.25C387.4,-444.25 413.34,-444.25 413.34,-446.25"/>
<path fill="none" stroke="none" d="M387.4,-446.25C387.4,-446.25 413.34,-446.25 413.34,-446.25"/>
<path fill="none" stroke="black" d="M387.4,-446.25C387.4,-448.25 413.34,-448.25 413.34,-446.25"/>
<polygon fill="black" stroke="black" points="413.34,-449.75 423.34,-446.25 413.34,-442.75 413.34,-449.75"/>
</g>
<!-- imsic___vsint_file__ -->
<g id="node18" class="node">
<title>imsic___vsint_file__</title>
<polygon fill="none" stroke="black" points="528.25,-518.25 423,-518.25 423,-482.25 528.25,-482.25 528.25,-518.25"/>
<text text-anchor="middle" x="475.62" y="-495.57" font-family="Times,serif" font-size="14.00">VS IntFile ...</text>
</g>
<!-- bus_network&#45;&gt;imsic___vsint_file__ -->
<g id="edge27" class="edge">
<title>bus_network&#45;&gt;imsic___vsint_file__</title>
<path fill="none" stroke="black" d="M387.4,-500.25C387.4,-498.25 411.04,-498.25 411.04,-500.25"/>
<path fill="none" stroke="none" d="M387.4,-500.25C387.4,-500.25 411.04,-500.25 411.04,-500.25"/>
<path fill="none" stroke="black" d="M387.4,-500.25C387.4,-502.25 411.04,-502.25 411.04,-500.25"/>
<polygon fill="black" stroke="black" points="411.04,-503.75 421.04,-500.25 411.04,-496.75 411.04,-503.75"/>
</g>
<!-- hart_0 -->
<g id="node14" class="node">
<title>hart_0</title>
<polygon fill="none" stroke="black" points="629,-283.45 566.5,-283.45 566.5,-53.05 629,-53.05 629,-283.45"/>
<text text-anchor="middle" x="597.75" y="-163.57" font-family="Times,serif" font-size="14.00">Hart 0</text>
</g>
<!-- imsic_0_mint_file&#45;&gt;hart_0 -->
<g id="edge12" class="edge">
<title>imsic_0_mint_file&#45;&gt;hart_0</title>
<path fill="none" stroke="black" d="M516.97,-75.25C516.97,-75.25 554.59,-75.25 554.59,-75.25"/>
<polygon fill="black" stroke="black" points="554.59,-78.75 564.59,-75.25 554.59,-71.75 554.59,-78.75"/>
</g>
<!-- imsic_0_sint_file&#45;&gt;hart_0 -->
<g id="edge14" class="edge">
<title>imsic_0_sint_file&#45;&gt;hart_0</title>
<path fill="none" stroke="black" d="M514.6,-129.25C514.6,-129.25 554.56,-129.25 554.56,-129.25"/>
<polygon fill="black" stroke="black" points="554.56,-132.75 564.56,-129.25 554.56,-125.75 554.56,-132.75"/>
</g>
<!-- imsic_0_vsint_file_0&#45;&gt;hart_0 -->
<g id="edge16" class="edge">
<title>imsic_0_vsint_file_0&#45;&gt;hart_0</title>
<path fill="none" stroke="black" d="M526.36,-183.25C526.36,-183.25 554.68,-183.25 554.68,-183.25"/>
<polygon fill="black" stroke="black" points="554.68,-186.75 564.68,-183.25 554.68,-179.75 554.68,-186.75"/>
</g>
<!-- imsic_0_vsint_file__&#45;&gt;hart_0 -->
<g id="edge18" class="edge">
<title>imsic_0_vsint_file__&#45;&gt;hart_0</title>
<path fill="none" stroke="black" d="M528.48,-237.25C528.48,-237.25 554.78,-237.25 554.78,-237.25"/>
<polygon fill="black" stroke="black" points="554.78,-240.75 564.78,-237.25 554.78,-233.75 554.78,-240.75"/>
</g>
<!-- hart__ -->
<g id="node19" class="node">
<title>hart__</title>
<polygon fill="none" stroke="black" points="631.25,-546.45 564.25,-546.45 564.25,-316.05 631.25,-316.05 631.25,-546.45"/>
<text text-anchor="middle" x="597.75" y="-426.57" font-family="Times,serif" font-size="14.00">Hart ...</text>
</g>
<!-- imsic___mint_file&#45;&gt;hart__ -->
<g id="edge20" class="edge">
<title>imsic___mint_file&#45;&gt;hart__</title>
<path fill="none" stroke="black" d="M516.97,-338.25C516.97,-338.25 552.24,-338.25 552.24,-338.25"/>
<polygon fill="black" stroke="black" points="552.24,-341.75 562.24,-338.25 552.24,-334.75 552.24,-341.75"/>
</g>
<!-- imsic___sint_file&#45;&gt;hart__ -->
<g id="edge22" class="edge">
<title>imsic___sint_file&#45;&gt;hart__</title>
<path fill="none" stroke="black" d="M514.6,-392.25C514.6,-392.25 552.56,-392.25 552.56,-392.25"/>
<polygon fill="black" stroke="black" points="552.56,-395.75 562.56,-392.25 552.56,-388.75 552.56,-395.75"/>
</g>
<!-- imsic___vsint_file_0&#45;&gt;hart__ -->
<g id="edge24" class="edge">
<title>imsic___vsint_file_0&#45;&gt;hart__</title>
<path fill="none" stroke="black" d="M526.36,-446.25C526.36,-446.25 552.54,-446.25 552.54,-446.25"/>
<polygon fill="black" stroke="black" points="552.54,-449.75 562.54,-446.25 552.54,-442.75 552.54,-449.75"/>
</g>
<!-- imsic___vsint_file__&#45;&gt;hart__ -->
<g id="edge26" class="edge">
<title>imsic___vsint_file__&#45;&gt;hart__</title>
<path fill="none" stroke="black" d="M528.48,-500.25C528.48,-500.25 552.33,-500.25 552.33,-500.25"/>
<polygon fill="black" stroke="black" points="552.33,-503.75 562.33,-500.25 552.33,-496.75 552.33,-503.75"/>
</g>
<!-- legend_$wire_edge_src -->
<g id="node20" class="node">
<title>legend_$wire_edge_src</title>
<text text-anchor="middle" x="80.62" y="-587.58" font-family="Times,serif" font-size="14.00">wire</text>
</g>
<!-- legend_$wire_edge_dst -->
<g id="node21" class="node">
<title>legend_$wire_edge_dst</title>
<text text-anchor="middle" x="239.12" y="-587.58" font-family="Times,serif" font-size="14.00"> </text>
</g>
<!-- legend_$wire_edge_src&#45;&gt;legend_$wire_edge_dst -->
<g id="edge28" class="edge">
<title>legend_$wire_edge_src&#45;&gt;legend_$wire_edge_dst</title>
<path fill="none" stroke="black" d="M96.11,-592.25C96.11,-592.25 225.43,-592.25 225.43,-592.25"/>
<polygon fill="black" stroke="black" points="225.43,-595.75 235.43,-592.25 225.43,-588.75 225.43,-595.75"/>
</g>
<!-- legend_$message_edge_src -->
<g id="node22" class="node">
<title>legend_$message_edge_src</title>
<text text-anchor="middle" x="80.62" y="-622.58" font-family="Times,serif" font-size="14.00">message</text>
</g>
<!-- legend_$message_edge_dst -->
<g id="node23" class="node">
<title>legend_$message_edge_dst</title>
<text text-anchor="middle" x="239.12" y="-622.58" font-family="Times,serif" font-size="14.00"> </text>
</g>
<!-- legend_$message_edge_src&#45;&gt;legend_$message_edge_dst -->
<g id="edge29" class="edge">
<title>legend_$message_edge_src&#45;&gt;legend_$message_edge_dst</title>
<path fill="none" stroke="black" d="M111.56,-627.25C111.56,-625.25 225.56,-625.25 225.56,-627.25"/>
<path fill="none" stroke="none" d="M111.56,-627.25C111.56,-627.25 225.56,-627.25 225.56,-627.25"/>
<path fill="none" stroke="black" d="M111.56,-627.25C111.56,-629.25 225.56,-629.25 225.56,-627.25"/>
<polygon fill="black" stroke="black" points="225.56,-630.75 235.56,-627.25 225.56,-623.75 225.56,-630.75"/>
</g>
</g>
</svg>
