<?xml version="1.0" encoding="UTF-8" standalone="no"?>
<!DOCTYPE svg PUBLIC "-//W3C//DTD SVG 1.1//EN"
 "http://www.w3.org/Graphics/SVG/1.1/DTD/svg11.dtd">
<!-- Generated by graphviz version 10.0.1 (0)
 -->
<!-- Title: G Pages: 1 -->
<svg width="480px" height="689px"
 viewBox="0.00 0.00 479.75 689.25" xmlns="http://www.w3.org/2000/svg" xmlns:xlink="http://www.w3.org/1999/xlink">
<g id="graph0" class="graph" transform="scale(1 1) rotate(0) translate(4 685.25)">
<title>G</title>
<text text-anchor="middle" x="235.88" y="-7.95" font-family="Times,serif" font-size="14.00">Configuration Paths in an AIA System</text>
<g id="clust1" class="cluster">
<title>main</title>
<polygon fill="none" stroke="none" points="8,-33.25 8,-571.25 463.75,-571.25 463.75,-33.25 8,-33.25"/>
</g>
<g id="clust2" class="cluster">
<title>aplic</title>
<polygon fill="#f8cecc" stroke="#b85450" points="16,-179.25 16,-454.25 121.5,-454.25 121.5,-179.25 16,-179.25"/>
<text text-anchor="middle" x="68.75" y="-436.95" font-family="Times,serif" font-size="14.00">APLIC</text>
</g>
<g id="clust3" class="cluster">
<title>imsic_hart_0</title>
<polygon fill="none" stroke="none" points="223.5,-41.25 223.5,-296.25 453.5,-296.25 453.5,-41.25 223.5,-41.25"/>
</g>
<g id="clust4" class="cluster">
<title>imsic_0</title>
<polygon fill="#f8cecc" stroke="#b85450" points="231.5,-49.25 231.5,-288.25 352.75,-288.25 352.75,-49.25 231.5,-49.25"/>
<text text-anchor="middle" x="292.12" y="-270.95" font-family="Times,serif" font-size="14.00">IMSIC 0</text>
</g>
<g id="clust5" class="cluster">
<title>imsic_hart__</title>
<polygon fill="none" stroke="none" points="223.5,-306.25 223.5,-561.25 455.75,-561.25 455.75,-306.25 223.5,-306.25"/>
</g>
<g id="clust6" class="cluster">
<title>imsic__</title>
<polygon fill="#f8cecc" stroke="#b85450" points="231.5,-314.25 231.5,-553.25 352.75,-553.25 352.75,-314.25 231.5,-314.25"/>
<text text-anchor="middle" x="292.12" y="-535.95" font-family="Times,serif" font-size="14.00">IMSIC ...</text>
</g>
<g id="clust7" class="cluster">
<title>legend</title>
<polygon fill="none" stroke="gray" points="281.88,-579.25 281.88,-673.25 453.38,-673.25 453.38,-579.25 281.88,-579.25"/>
<text text-anchor="middle" x="367.62" y="-655.95" font-family="Times,serif" font-size="14.00">Legend</text>
</g>
<!-- m_domain -->
<g id="node1" class="node">
<title>m_domain</title>
<polygon fill="none" stroke="black" points="113.5,-295.25 24,-295.25 24,-187.25 113.5,-187.25 113.5,-295.25"/>
<text text-anchor="middle" x="68.75" y="-236.57" font-family="Times,serif" font-size="14.00">M Domain</text>
</g>
<!-- s_domain -->
<g id="node2" class="node">
<title>s_domain</title>
<polygon fill="none" stroke="black" points="111.25,-421.25 26.25,-421.25 26.25,-313.25 111.25,-313.25 111.25,-421.25"/>
<text text-anchor="middle" x="68.75" y="-362.57" font-family="Times,serif" font-size="14.00">S Domain</text>
</g>
<!-- bus_network -->
<g id="node3" class="node">
<title>bus_network</title>
<polygon fill="none" stroke="black" points="203.5,-556.25 149.5,-556.25 149.5,-52.25 203.5,-52.25 203.5,-556.25"/>
<text text-anchor="middle" x="176.5" y="-299.57" font-family="Times,serif" font-size="14.00">Bus</text>
</g>
<!-- bus_network&#45;&gt;m_domain -->
<g id="edge1" class="edge">
<title>bus_network&#45;&gt;m_domain</title>
<path fill="none" stroke="black" d="M149.03,-241.25C149.03,-243.25 125.26,-243.25 125.26,-241.25"/>
<path fill="none" stroke="none" d="M149.03,-241.25C149.03,-241.25 125.26,-241.25 125.26,-241.25"/>
<path fill="none" stroke="black" d="M149.03,-241.25C149.03,-239.25 125.26,-239.25 125.26,-241.25"/>
<polygon fill="black" stroke="black" points="125.26,-237.75 115.26,-241.25 125.26,-244.75 125.26,-237.75"/>
</g>
<!-- bus_network&#45;&gt;s_domain -->
<g id="edge2" class="edge">
<title>bus_network&#45;&gt;s_domain</title>
<path fill="none" stroke="black" d="M149.03,-367.25C149.03,-369.25 123.18,-369.25 123.18,-367.25"/>
<path fill="none" stroke="none" d="M149.03,-367.25C149.03,-367.25 123.18,-367.25 123.18,-367.25"/>
<path fill="none" stroke="black" d="M149.03,-367.25C149.03,-365.25 123.18,-365.25 123.18,-367.25"/>
<polygon fill="black" stroke="black" points="123.18,-363.75 113.18,-367.25 123.18,-370.75 123.18,-363.75"/>
</g>
<!-- imsic_0_mint_file -->
<g id="node4" class="node">
<title>imsic_0_mint_file</title>
<polygon fill="none" stroke="black" points="333.12,-93.25 251.12,-93.25 251.12,-57.25 333.12,-57.25 333.12,-93.25"/>
<text text-anchor="middle" x="292.12" y="-70.58" font-family="Times,serif" font-size="14.00">M IntFile</text>
</g>
<!-- imsic_0_mint_file&#45;&gt;bus_network -->
<g id="edge4" class="edge">
<title>imsic_0_mint_file&#45;&gt;bus_network</title>
<path fill="none" stroke="none" d="M250.71,-75.25C250.71,-75.25 215.42,-75.25 215.42,-75.25"/>
<polygon fill="none" stroke="none" points="215.42,-71.75 205.42,-75.25 215.42,-78.75 215.42,-71.75"/>
</g>
<!-- imsic_0_sint_file -->
<g id="node5" class="node">
<title>imsic_0_sint_file</title>
<polygon fill="none" stroke="black" points="330.88,-147.25 253.38,-147.25 253.38,-111.25 330.88,-111.25 330.88,-147.25"/>
<text text-anchor="middle" x="292.12" y="-124.58" font-family="Times,serif" font-size="14.00">S IntFile</text>
</g>
<!-- imsic_0_sint_file&#45;&gt;bus_network -->
<g id="edge6" class="edge">
<title>imsic_0_sint_file&#45;&gt;bus_network</title>
<path fill="none" stroke="none" d="M252.98,-129.25C252.98,-129.25 215.44,-129.25 215.44,-129.25"/>
<polygon fill="none" stroke="none" points="215.44,-125.75 205.44,-129.25 215.44,-132.75 215.44,-125.75"/>
</g>
<!-- imsic_0_vsint_file_0 -->
<g id="node6" class="node">
<title>imsic_0_vsint_file_0</title>
<polygon fill="none" stroke="black" points="342.5,-201.25 241.75,-201.25 241.75,-165.25 342.5,-165.25 342.5,-201.25"/>
<text text-anchor="middle" x="292.12" y="-178.57" font-family="Times,serif" font-size="14.00">VS IntFile 0</text>
</g>
<!-- imsic_0_vsint_file_0&#45;&gt;bus_network -->
<g id="edge8" class="edge">
<title>imsic_0_vsint_file_0&#45;&gt;bus_network</title>
<path fill="none" stroke="none" d="M241.41,-183.25C241.41,-183.25 215.5,-183.25 215.5,-183.25"/>
<polygon fill="none" stroke="none" points="215.5,-179.75 205.5,-183.25 215.5,-186.75 215.5,-179.75"/>
</g>
<!-- imsic_0_vsint_file__ -->
<g id="node7" class="node">
<title>imsic_0_vsint_file__</title>
<polygon fill="none" stroke="black" points="344.75,-255.25 239.5,-255.25 239.5,-219.25 344.75,-219.25 344.75,-255.25"/>
<text text-anchor="middle" x="292.12" y="-232.57" font-family="Times,serif" font-size="14.00">VS IntFile ...</text>
</g>
<!-- imsic_0_vsint_file__&#45;&gt;bus_network -->
<g id="edge10" class="edge">
<title>imsic_0_vsint_file__&#45;&gt;bus_network</title>
<path fill="none" stroke="none" d="M239.05,-237.25C239.05,-237.25 215.23,-237.25 215.23,-237.25"/>
<polygon fill="none" stroke="none" points="215.23,-233.75 205.23,-237.25 215.23,-240.75 215.23,-233.75"/>
</g>
<!-- hart_0 -->
<g id="node8" class="node">
<title>hart_0</title>
<polygon fill="none" stroke="black" points="445.5,-288.45 383,-288.45 383,-58.05 445.5,-58.05 445.5,-288.45"/>
<text text-anchor="middle" x="414.25" y="-168.57" font-family="Times,serif" font-size="14.00">Hart 0</text>
</g>
<!-- hart_0&#45;&gt;bus_network -->
<g id="edge11" class="edge">
<title>hart_0&#45;&gt;bus_network</title>
<path fill="none" stroke="black" d="M382.68,-156.25C382.68,-158.25 215.29,-158.25 215.29,-156.25"/>
<path fill="none" stroke="none" d="M382.68,-156.25C382.68,-156.25 215.29,-156.25 215.29,-156.25"/>
<path fill="none" stroke="black" d="M382.68,-156.25C382.68,-154.25 215.29,-154.25 215.29,-156.25"/>
<polygon fill="black" stroke="black" points="215.29,-152.75 205.29,-156.25 215.29,-159.75 215.29,-152.75"/>
</g>
<!-- hart_0&#45;&gt;imsic_0_mint_file -->
<g id="edge3" class="edge">
<title>hart_0&#45;&gt;imsic_0_mint_file</title>
<path fill="none" stroke="black" d="M382.8,-75.65C382.8,-75.65 345.12,-75.65 345.12,-75.65"/>
<polygon fill="black" stroke="black" points="345.12,-72.15 335.12,-75.65 345.12,-79.15 345.12,-72.15"/>
</g>
<!-- hart_0&#45;&gt;imsic_0_sint_file -->
<g id="edge5" class="edge">
<title>hart_0&#45;&gt;imsic_0_sint_file</title>
<path fill="none" stroke="black" d="M382.8,-129.25C382.8,-129.25 342.85,-129.25 342.85,-129.25"/>
<polygon fill="black" stroke="black" points="342.85,-125.75 332.85,-129.25 342.85,-132.75 342.85,-125.75"/>
</g>
<!-- hart_0&#45;&gt;imsic_0_vsint_file_0 -->
<g id="edge7" class="edge">
<title>hart_0&#45;&gt;imsic_0_vsint_file_0</title>
<path fill="none" stroke="black" d="M382.8,-183.25C382.8,-183.25 354.41,-183.25 354.41,-183.25"/>
<polygon fill="black" stroke="black" points="354.41,-179.75 344.41,-183.25 354.41,-186.75 354.41,-179.75"/>
</g>
<!-- hart_0&#45;&gt;imsic_0_vsint_file__ -->
<g id="edge9" class="edge">
<title>hart_0&#45;&gt;imsic_0_vsint_file__</title>
<path fill="none" stroke="black" d="M382.8,-237.25C382.8,-237.25 356.3,-237.25 356.3,-237.25"/>
<polygon fill="black" stroke="black" points="356.3,-233.75 346.3,-237.25 356.3,-240.75 356.3,-233.75"/>
</g>
<!-- imsic___mint_file -->
<g id="node9" class="node">
<title>imsic___mint_file</title>
<polygon fill="none" stroke="black" points="333.12,-358.25 251.12,-358.25 251.12,-322.25 333.12,-322.25 333.12,-358.25"/>
<text text-anchor="middle" x="292.12" y="-335.57" font-family="Times,serif" font-size="14.00">M IntFile</text>
</g>
<!-- imsic___mint_file&#45;&gt;bus_network -->
<g id="edge13" class="edge">
<title>imsic___mint_file&#45;&gt;bus_network</title>
<path fill="none" stroke="none" d="M250.71,-340.25C250.71,-340.25 215.42,-340.25 215.42,-340.25"/>
<polygon fill="none" stroke="none" points="215.42,-336.75 205.42,-340.25 215.42,-343.75 215.42,-336.75"/>
</g>
<!-- imsic___sint_file -->
<g id="node10" class="node">
<title>imsic___sint_file</title>
<polygon fill="none" stroke="black" points="330.88,-412.25 253.38,-412.25 253.38,-376.25 330.88,-376.25 330.88,-412.25"/>
<text text-anchor="middle" x="292.12" y="-389.57" font-family="Times,serif" font-size="14.00">S IntFile</text>
</g>
<!-- imsic___sint_file&#45;&gt;bus_network -->
<g id="edge15" class="edge">
<title>imsic___sint_file&#45;&gt;bus_network</title>
<path fill="none" stroke="none" d="M252.98,-394.25C252.98,-394.25 215.44,-394.25 215.44,-394.25"/>
<polygon fill="none" stroke="none" points="215.44,-390.75 205.44,-394.25 215.44,-397.75 215.44,-390.75"/>
</g>
<!-- imsic___vsint_file_0 -->
<g id="node11" class="node">
<title>imsic___vsint_file_0</title>
<polygon fill="none" stroke="black" points="342.5,-466.25 241.75,-466.25 241.75,-430.25 342.5,-430.25 342.5,-466.25"/>
<text text-anchor="middle" x="292.12" y="-443.57" font-family="Times,serif" font-size="14.00">VS IntFile 0</text>
</g>
<!-- imsic___vsint_file_0&#45;&gt;bus_network -->
<g id="edge17" class="edge">
<title>imsic___vsint_file_0&#45;&gt;bus_network</title>
<path fill="none" stroke="none" d="M241.41,-448.25C241.41,-448.25 215.5,-448.25 215.5,-448.25"/>
<polygon fill="none" stroke="none" points="215.5,-444.75 205.5,-448.25 215.5,-451.75 215.5,-444.75"/>
</g>
<!-- imsic___vsint_file__ -->
<g id="node12" class="node">
<title>imsic___vsint_file__</title>
<polygon fill="none" stroke="black" points="344.75,-520.25 239.5,-520.25 239.5,-484.25 344.75,-484.25 344.75,-520.25"/>
<text text-anchor="middle" x="292.12" y="-497.57" font-family="Times,serif" font-size="14.00">VS IntFile ...</text>
</g>
<!-- imsic___vsint_file__&#45;&gt;bus_network -->
<g id="edge19" class="edge">
<title>imsic___vsint_file__&#45;&gt;bus_network</title>
<path fill="none" stroke="none" d="M239.05,-502.25C239.05,-502.25 215.23,-502.25 215.23,-502.25"/>
<polygon fill="none" stroke="none" points="215.23,-498.75 205.23,-502.25 215.23,-505.75 215.23,-498.75"/>
</g>
<!-- hart__ -->
<g id="node13" class="node">
<title>hart__</title>
<polygon fill="none" stroke="black" points="447.75,-553.45 380.75,-553.45 380.75,-323.05 447.75,-323.05 447.75,-553.45"/>
<text text-anchor="middle" x="414.25" y="-433.57" font-family="Times,serif" font-size="14.00">Hart ...</text>
</g>
<!-- hart__&#45;&gt;bus_network -->
<g id="edge20" class="edge">
<title>hart__&#45;&gt;bus_network</title>
<path fill="none" stroke="black" d="M380.44,-421.25C380.44,-423.25 215.43,-423.25 215.43,-421.25"/>
<path fill="none" stroke="none" d="M380.44,-421.25C380.44,-421.25 215.43,-421.25 215.43,-421.25"/>
<path fill="none" stroke="black" d="M380.44,-421.25C380.44,-419.25 215.43,-419.25 215.43,-421.25"/>
<polygon fill="black" stroke="black" points="215.43,-417.75 205.43,-421.25 215.43,-424.75 215.43,-417.75"/>
</g>
<!-- hart__&#45;&gt;imsic___mint_file -->
<g id="edge12" class="edge">
<title>hart__&#45;&gt;imsic___mint_file</title>
<path fill="none" stroke="black" d="M380.56,-340.65C380.56,-340.65 345.06,-340.65 345.06,-340.65"/>
<polygon fill="black" stroke="black" points="345.06,-337.15 335.06,-340.65 345.06,-344.15 345.06,-337.15"/>
</g>
<!-- hart__&#45;&gt;imsic___sint_file -->
<g id="edge14" class="edge">
<title>hart__&#45;&gt;imsic___sint_file</title>
<path fill="none" stroke="black" d="M380.56,-394.25C380.56,-394.25 342.84,-394.25 342.84,-394.25"/>
<polygon fill="black" stroke="black" points="342.84,-390.75 332.84,-394.25 342.84,-397.75 342.84,-390.75"/>
</g>
<!-- hart__&#45;&gt;imsic___vsint_file_0 -->
<g id="edge16" class="edge">
<title>hart__&#45;&gt;imsic___vsint_file_0</title>
<path fill="none" stroke="black" d="M380.56,-448.25C380.56,-448.25 354.15,-448.25 354.15,-448.25"/>
<polygon fill="black" stroke="black" points="354.15,-444.75 344.15,-448.25 354.15,-451.75 354.15,-444.75"/>
</g>
<!-- hart__&#45;&gt;imsic___vsint_file__ -->
<g id="edge18" class="edge">
<title>hart__&#45;&gt;imsic___vsint_file__</title>
<path fill="none" stroke="black" d="M380.56,-502.25C380.56,-502.25 356.47,-502.25 356.47,-502.25"/>
<polygon fill="black" stroke="black" points="356.47,-498.75 346.47,-502.25 356.47,-505.75 356.47,-498.75"/>
</g>
<!-- legend_$wire_edge_src -->
<g id="node14" class="node">
<title>legend_$wire_edge_src</title>
<text text-anchor="middle" x="414.25" y="-591.58" font-family="Times,serif" font-size="14.00">wire</text>
</g>
<!-- legend_$wire_edge_dst -->
<g id="node15" class="node">
<title>legend_$wire_edge_dst</title>
<text text-anchor="middle" x="292.12" y="-591.58" font-family="Times,serif" font-size="14.00"> </text>
</g>
<!-- legend_$wire_edge_src&#45;&gt;legend_$wire_edge_dst -->
<g id="edge21" class="edge">
<title>legend_$wire_edge_src&#45;&gt;legend_$wire_edge_dst</title>
<path fill="none" stroke="black" d="M398.78,-596.25C398.78,-596.25 305.8,-596.25 305.8,-596.25"/>
<polygon fill="black" stroke="black" points="305.8,-592.75 295.8,-596.25 305.8,-599.75 305.8,-592.75"/>
</g>
<!-- legend_$message_edge_src -->
<g id="node16" class="node">
<title>legend_$message_edge_src</title>
<text text-anchor="middle" x="414.25" y="-626.58" font-family="Times,serif" font-size="14.00">message</text>
</g>
<!-- legend_$message_edge_dst -->
<g id="node17" class="node">
<title>legend_$message_edge_dst</title>
<text text-anchor="middle" x="292.12" y="-626.58" font-family="Times,serif" font-size="14.00"> </text>
</g>
<!-- legend_$message_edge_src&#45;&gt;legend_$message_edge_dst -->
<g id="edge22" class="edge">
<title>legend_$message_edge_src&#45;&gt;legend_$message_edge_dst</title>
<path fill="none" stroke="black" d="M383.43,-631.25C383.43,-633.25 305.52,-633.25 305.52,-631.25"/>
<path fill="none" stroke="none" d="M383.43,-631.25C383.43,-631.25 305.52,-631.25 305.52,-631.25"/>
<path fill="none" stroke="black" d="M383.43,-631.25C383.43,-629.25 305.52,-629.25 305.52,-631.25"/>
<polygon fill="black" stroke="black" points="305.52,-627.75 295.52,-631.25 305.52,-634.75 305.52,-627.75"/>
</g>
</g>
</svg>
